<svg xmlns="http://www.w3.org/2000/svg" xmlns:xlink="http://www.w3.org/1999/xlink" width="356pt" height="44" viewBox="0 0 356.17 32.8"><g id="graph0" class="graph" transform="scale(1 1) rotate(0) translate(4 28.8)"><title>G</title><polygon fill="#fff" stroke="transparent" points="-4 4 -4 -28.8 352.175 -28.8 352.175 4 -4 4"/><g id="node1" class="node"><title>s</title><polygon fill="#d3d3d3" stroke="#d3d3d3" points="61.191 -24.701 -.064 -24.701 -.064 -.099 61.191 -.099 61.191 -24.701"/><text x="30.564" y="-8.2" fill="#000" font-family="Helvetica,sans-Serif" font-size="14" text-anchor="middle">Sender</text></g><g id="node3" class="node"><title>c1</title><polygon fill="#d3d3d3" stroke="#d3d3d3" points="159.636 -24.701 79.492 -24.701 79.492 -.099 159.636 -.099 159.636 -24.701"/><text x="119.564" y="-8.2" fill="#000" font-family="Helvetica,sans-Serif" font-size="14" text-anchor="middle">Connector</text></g><g id="edge1" class="edge"><title>s:e--c1:w</title><path fill="none" stroke="#000" d="M61.1276,-12.4C69.3215,-12.4 71.3699,-12.4 79.5638,-12.4"/></g><g id="node2" class="node"><title>r</title><polygon fill="#d3d3d3" stroke="#d3d3d3" points="348.286 -24.701 276.842 -24.701 276.842 -.099 348.286 -.099 348.286 -24.701"/><text x="312.564" y="-8.2" fill="#000" font-family="Helvetica,sans-Serif" font-size="14" text-anchor="middle">Receiver</text></g><g id="node4" class="node"><title>c2</title><polygon fill="#d3d3d3" stroke="#d3d3d3" points="258.636 -24.701 178.492 -24.701 178.492 -.099 258.636 -.099 258.636 -24.701"/><text x="218.564" y="-8.2" fill="#000" font-family="Helvetica,sans-Serif" font-size="14" text-anchor="middle">Connector</text></g><g id="edge2" class="edge"><title>c1:e--c2:w</title><path fill="none" stroke="#000" d="M159.5638,-12.4C168.0082,-12.4 170.1194,-12.4 178.5638,-12.4"/></g><g id="edge3" class="edge"><title>c2:e--r:w</title><path fill="none" stroke="#000" d="M258.5638,-12.4C266.7368,-12.4 268.78,-12.4 276.953,-12.4"/></g></g></svg>