<svg xmlns="http://www.w3.org/2000/svg" xmlns:xlink="http://www.w3.org/1999/xlink" width="580pt" height="176" viewBox="0 0 580 131.63"><g id="graph0" class="graph" transform="scale(1 1) rotate(0) translate(4 127.629)"><title>G</title><polygon fill="#fff" stroke="transparent" points="-4 4 -4 -127.629 576 -127.629 576 4 -4 4"/><g id="node1" class="node"><title>s</title><polygon fill="#d3d3d3" stroke="#d3d3d3" points="108 -80.129 0 -80.129 0 -57.129 108 -57.129 108 -80.129"/><text x="54" y="-64.929" fill="#000" font-family="Helvetica,sans-Serif" font-size="14" text-anchor="middle">Sender</text></g><g id="node3" class="node"><title>c1</title><polygon fill="#d3d3d3" stroke="#d3d3d3" points="277 -80.129 169 -80.129 169 -57.129 277 -57.129 277 -80.129"/><text x="223" y="-64.929" fill="#000" font-family="Helvetica,sans-Serif" font-size="14" text-anchor="middle">Connector</text></g><g id="edge1" class="edge"><title>s:n-&gt;c1:n</title><path fill="none" stroke="#000" stroke-dasharray="1 5" d="M54,-80.629C54,-114.6638 192.7979,-117.8545 218.8224,-90.2013"/><polygon fill="#000" stroke="#000" points="222.208 -91.194 223 -80.629 215.792 -88.394 222.208 -91.194"/><text x="139" y="-112.429" fill="#000" font-family="Times,serif" font-size="14" text-anchor="middle">Prepare</text></g><g id="node2" class="node"><title>r</title><polygon fill="#d3d3d3" stroke="#d3d3d3" points="572 -80.129 464 -80.129 464 -57.129 572 -57.129 572 -80.129"/><text x="518" y="-64.929" fill="#000" font-family="Helvetica,sans-Serif" font-size="14" text-anchor="middle">Receiver</text></g><g id="edge4" class="edge"><title>c1:s-&gt;s:s</title><path fill="none" stroke="red" d="M223,-56.629C223,14.9612 69.4724,18.317 55.0792,-46.5616"/><polygon fill="red" stroke="red" points="51.586 -46.313 54 -56.629 58.546 -47.059 51.586 -46.313"/><text x="139" y="-6.429" fill="#000" font-family="Times,serif" font-size="14" text-anchor="middle">Reject</text></g><g id="node4" class="node"><title>c2</title><polygon fill="#d3d3d3" stroke="#d3d3d3" points="446 -80.129 338 -80.129 338 -57.129 446 -57.129 446 -80.129"/><text x="392" y="-64.929" fill="#000" font-family="Helvetica,sans-Serif" font-size="14" text-anchor="middle">Connector</text></g><g id="edge2" class="edge"><title>c1:n-&gt;c2:n</title><path fill="none" stroke="#000" stroke-dasharray="1 5" d="M223,-80.629C223,-114.6638 361.7979,-117.8545 387.8224,-90.2013"/><polygon fill="#000" stroke="#000" points="391.208 -91.194 392 -80.629 384.792 -88.394 391.208 -91.194"/><text x="308" y="-112.429" fill="#000" font-family="Times,serif" font-size="14" text-anchor="middle">Prepare</text></g><g id="edge3" class="edge"><title>c2:s-&gt;c1:s</title><path fill="none" stroke="red" d="M392,-56.629C392,14.9612 238.4724,18.317 224.0792,-46.5616"/><polygon fill="red" stroke="red" points="220.586 -46.313 223 -56.629 227.546 -47.059 220.586 -46.313"/><text x="308" y="-6.429" fill="#000" font-family="Times,serif" font-size="14" text-anchor="middle">Reject</text></g></g></svg>