<svg xmlns="http://www.w3.org/2000/svg" xmlns:xlink="http://www.w3.org/1999/xlink" width="400" height="299pt" viewBox="0 0 300 299"><g id="graph0" class="graph" transform="scale(1 1) rotate(0) translate(4 295)"><title>G</title><polygon fill="#fff" stroke="transparent" points="-4 4 -4 -295 296 -295 296 4 -4 4"/><g id="clust1" class="cluster"><title>cluster_0</title><polygon fill="#d3d3d3" stroke="#d3d3d3" points="118 -67 118 -283 284 -283 284 -67 118 -67"/></g><g id="clust2" class="cluster"><title>cluster_1</title><polygon fill="#fff" stroke="#fff" points="131 -8 131 -47 273 -47 273 -8 131 -8"/></g><g id="node1" class="node"><title>app</title><text x="10" y="-259.8" fill="#000" font-family="Helvetica,sans-Serif" font-size="14" text-anchor="start">Application</text></g><g id="node2" class="node"><title>transport</title><text x="8" y="-200.8" fill="#000" font-family="Helvetica,sans-Serif" font-size="14" text-anchor="start">Transport</text></g><g id="node3" class="node"><title>interledger</title><text x="10" y="-141.8" fill="#000" font-family="Helvetica,sans-Serif" font-size="14" text-anchor="start">Interledger</text></g><g id="node4" class="node"><title>link</title><text x="10" y="-82.8" fill="#000" font-family="Helvetica,sans-Serif" font-size="14" text-anchor="start">Link</text></g><g id="node5" class="node"><title>ledger</title><text x="21" y="-23.8" fill="#000" font-family="Helvetica,sans-Serif" font-size="14" text-anchor="start">Ledger</text></g><g id="node6" class="node"><title>app1</title><polygon fill="#fff" stroke="#fff" points="270 -275 214 -275 214 -252 270 -252 270 -275"/><text x="242" y="-259.8" fill="#000" font-family="Helvetica,sans-Serif" font-size="14" text-anchor="middle">SPSP</text></g><g id="node8" class="node"><title>tr1</title><polygon fill="#add8e6" stroke="#add8e6" points="275.5 -216 198.5 -216 198.5 -193 275.5 -193 275.5 -216"/><text x="237" y="-200.8" fill="#000" font-family="Helvetica,sans-Serif" font-size="14" text-anchor="middle">STREAM</text></g><g id="edge1" class="edge"><title>app1--tr1</title><path fill="none" stroke="#000" d="M241.0122,-251.8435C240.1356,-241.5 238.8617,-226.4685 237.9858,-216.1323"/></g><g id="node7" class="node"><title>app2</title><polygon fill="#fff" stroke="#fff" points="196 -275 142 -275 142 -252 196 -252 196 -275"/><text x="169" y="-259.8" fill="#000" font-family="Helvetica,sans-Serif" font-size="14" text-anchor="middle">...</text></g><g id="edge2" class="edge"><title>app2--tr1</title><path fill="none" stroke="#000" d="M182.4346,-251.8435C194.3559,-241.5 211.6804,-226.4685 223.5933,-216.1323"/></g><g id="node10" class="node"><title>im1</title><polygon fill="#fff" stroke="#fff" points="228 -157 174 -157 174 -134 228 -134 228 -157"/><text x="201" y="-141.8" fill="#000" font-family="Helvetica,sans-Serif" font-size="14" text-anchor="middle">ILPv4</text></g><g id="edge3" class="edge"><title>tr1--im1</title><path fill="none" stroke="#000" d="M229.8876,-192.8435C223.5763,-182.5 214.4045,-167.4685 208.0977,-157.1323"/></g><g id="node9" class="node"><title>tr2</title><polygon fill="#fff" stroke="#fff" points="180 -216 126 -216 126 -193 180 -193 180 -216"/><text x="153" y="-200.8" fill="#000" font-family="Helvetica,sans-Serif" font-size="14" text-anchor="middle">...</text></g><g id="edge4" class="edge"><title>tr2--im1</title><path fill="none" stroke="#000" d="M162.4833,-192.8435C170.8983,-182.5 183.1273,-167.4685 191.5364,-157.1323"/></g><g id="node11" class="node"><title>link1</title><polygon fill="#fff" stroke="#fff" points="193 -98 139 -98 139 -75 193 -75 193 -98"/><text x="166" y="-82.8" fill="#000" font-family="Helvetica,sans-Serif" font-size="14" text-anchor="middle">BTP</text></g><g id="edge5" class="edge"><title>im1--link1</title><path fill="none" stroke="#000" d="M194.0851,-133.8435C187.9491,-123.5 179.0321,-108.4685 172.9005,-98.1323"/></g><g id="node12" class="node"><title>link2</title><polygon fill="#fff" stroke="#fff" points="265 -98 211 -98 211 -75 265 -75 265 -98"/><text x="238" y="-82.8" fill="#000" font-family="Helvetica,sans-Serif" font-size="14" text-anchor="middle">...</text></g><g id="edge6" class="edge"><title>im1--link2</title><path fill="none" stroke="#000" d="M208.31,-133.8435C214.7966,-123.5 224.2232,-108.4685 230.7052,-98.1323"/></g><g id="node13" class="node"><title>ledger1</title><polygon fill="none" stroke="#000" points="193 -39 139 -39 139 -16 193 -16 193 -39"/><text x="166" y="-23.8" fill="#000" font-family="Helvetica,sans-Serif" font-size="14" text-anchor="middle">...</text></g><g id="edge7" class="edge"><title>link1--ledger1</title><path fill="none" stroke="#000" d="M166,-74.8435C166,-64.5 166,-49.4685 166,-39.1323"/></g><g id="node14" class="node"><title>ledger3</title><polygon fill="none" stroke="#000" points="265 -39 211 -39 211 -16 265 -16 265 -39"/><text x="238" y="-23.8" fill="#000" font-family="Helvetica,sans-Serif" font-size="14" text-anchor="middle">...</text></g><g id="edge8" class="edge"><title>link2--ledger3</title><path fill="none" stroke="#000" d="M238,-74.8435C238,-64.5 238,-49.4685 238,-39.1323"/></g></g></svg>