<svg xmlns="http://www.w3.org/2000/svg" xmlns:xlink="http://www.w3.org/1999/xlink" width="268pt" height="94pt" viewBox="0 0 268.13 93.6"><g id="graph0" class="graph" transform="scale(1 1) rotate(0) translate(4 89.6)"><title>G</title><polygon fill="#fff" stroke="transparent" points="-4 4 -4 -89.6 264.134 -89.6 264.134 4 -4 4"/><g id="node1" class="node"><title>Proposed</title><polygon fill="none" stroke="#000" points="75.865 -85.501 .045 -85.501 .045 -60.899 75.865 -60.899 75.865 -85.501"/><text x="37.955" y="-69" fill="#000" font-family="Helvetica,sans-Serif" font-size="14" text-anchor="middle">Proposed</text></g><g id="node2" class="node"><title>Prepared</title><polygon fill="none" stroke="#000" points="167.527 -85.501 94.383 -85.501 94.383 -60.899 167.527 -60.899 167.527 -85.501"/><text x="130.955" y="-69" fill="#000" font-family="Helvetica,sans-Serif" font-size="14" text-anchor="middle">Prepared</text></g><g id="edge1" class="edge"><title>Proposed-&gt;Prepared</title><path fill="none" stroke="#000" d="M76.0996,-73.2C78.7246,-73.2 81.3495,-73.2 83.9744,-73.2"/><polygon fill="#000" stroke="#000" points="84.099 -76.7 94.099 -73.2 84.099 -69.7 84.099 -76.7"/></g><g id="node4" class="node"><title>Rejected</title><polygon fill="none" stroke="#000" points="258.69 -24.701 187.22 -24.701 187.22 -.099 258.69 -.099 258.69 -24.701"/><text x="222.955" y="-8.2" fill="#000" font-family="Helvetica,sans-Serif" font-size="14" text-anchor="middle">Rejected</text></g><g id="edge3" class="edge"><title>Proposed:s-&gt;Rejected:w</title><path fill="none" stroke="#000" d="M37.9551,-61.2C37.9551,-29.2164 134.1524,-14.8306 176.8864,-12.6856"/><polygon fill="#000" stroke="#000" points="177.058 -16.182 186.955 -12.4 176.86 -9.185 177.058 -16.182"/></g><g id="node3" class="node"><title>Executed</title><polygon fill="none" stroke="#000" points="260.314 -85.501 185.597 -85.501 185.597 -60.899 260.314 -60.899 260.314 -85.501"/><text x="222.955" y="-69" fill="#000" font-family="Helvetica,sans-Serif" font-size="14" text-anchor="middle">Executed</text></g><g id="edge2" class="edge"><title>Prepared-&gt;Executed</title><path fill="none" stroke="#000" d="M167.6113,-73.2C170.2596,-73.2 172.9079,-73.2 175.5562,-73.2"/><polygon fill="#000" stroke="#000" points="175.771 -76.7 185.771 -73.2 175.771 -69.7 175.771 -76.7"/></g><g id="edge4" class="edge"><title>Prepared:s-&gt;Rejected:w</title><path fill="none" stroke="#000" d="M130.9551,-61.2C130.9551,-31.6688 149.3489,-15.9217 176.8593,-12.9285"/><polygon fill="#000" stroke="#000" points="177.152 -16.418 186.955 -12.4 176.786 -9.428 177.152 -16.418"/></g></g></svg>