<svg xmlns="http://www.w3.org/2000/svg" id="mermaidChart597" width="100%" height="100%" viewBox="-50 -10 850 581" style="max-width:850px"><style title="mermaid-svg-internal-css" type="text/css">*,::after,::before{box-sizing:inherit}text.actor{fill:#000;stroke:none}#arrowhead{fill:#333}.messageText,text.actor{font-size:12px}.actor{stroke:#ccf;fill:#ececff}.actor-line{stroke:gray}.messageLine0,.messageLine1{stroke-width:1.5;stroke:#333}#crosshead path{fill:#333!important;stroke:#333!important}.messageText{fill:#333;stroke:none}text{font-family:&quot;trebuchet ms&quot;,verdana,arial;font-size:14px}</style><g><line id="actor3241" x1="75" x2="75" y1="5" y2="570" stroke="#999" stroke-width=".5" class="actor-line"/><rect width="150" height="65" x="0" y="0" fill="#eaeaea" stroke="#666" class="actor" rx="3" ry="3"/><text x="75" y="37.5" class="actor" style="text-anchor:middle">Payer</text></g><g><line id="actor3242" x1="275" x2="275" y1="5" y2="570" stroke="#999" stroke-width=".5" class="actor-line"/><rect width="150" height="65" x="200" y="0" fill="#eaeaea" stroke="#666" class="actor" rx="3" ry="3"/><text x="275" y="37.5" class="actor" style="text-anchor:middle">Interledger</text></g><g><line id="actor3243" x1="475" x2="475" y1="5" y2="570" stroke="#999" stroke-width=".5" class="actor-line"/><rect width="150" height="65" x="400" y="0" fill="#eaeaea" stroke="#666" class="actor" rx="3" ry="3"/><text x="475" y="37.5" class="actor" style="text-anchor:middle">PayeeWallet</text></g><g><line id="actor3244" x1="675" x2="675" y1="5" y2="570" stroke="#999" stroke-width=".5" class="actor-line"/><rect width="150" height="65" x="600" y="0" fill="#eaeaea" stroke="#666" class="actor" rx="3" ry="3"/><text x="675" y="37.5" class="actor" style="text-anchor:middle">Payee</text></g><defs><marker id="arrowhead" markerHeight="4" markerWidth="6" orient="auto" refX="5" refY="2"><path d="M 0,0 V 4 L6,2 Z"/></marker></defs><defs><marker id="crosshead" markerHeight="8" markerWidth="15" orient="auto" refX="16" refY="4"><path fill="#000" stroke="#000" stroke-width="1" d="M 9,2 V 6 L16,4 Z" style="stroke-dasharray:0,0"/><path fill="none" stroke="#000" stroke-width="1" d="M 0,1 L 6,7 M 6,1 L 0,7" style="stroke-dasharray:0,0"/></marker></defs><g><rect width="10" height="418" x="70" y="67" fill="#f4f4f4" stroke="#666" rx="0" ry="0"/></g><g><text x="377.5" y="93" class="messageText" style="text-anchor:middle">Attempt Request</text><line x1="80" x2="675" y1="100" y2="100" stroke="#000" stroke-width="2" marker-end="url(#arrowhead)" class="messageLine0" style="fill:none"/></g><g><rect width="10" height="33" x="670" y="102" fill="#f4f4f4" stroke="#666" rx="0" ry="0"/></g><g><text x="375" y="128" class="messageText" style="text-anchor:middle">402 Payment Required</text><line x1="670" x2="80" y1="135" y2="135" stroke="#000" stroke-width="2" marker-end="url(#arrowhead)" class="messageLine1" style="stroke-dasharray:3,3;fill:none"/></g><g><text x="177.5" y="163" class="messageText" style="text-anchor:middle">Quote Request</text><line x1="80" x2="275" y1="170" y2="170" stroke="#000" stroke-width="2" marker-end="url(#arrowhead)" class="messageLine0" style="fill:none"/></g><g><rect width="10" height="33" x="270" y="172" fill="#f4f4f4" stroke="#666" rx="0" ry="0"/></g><g><text x="175" y="198" class="messageText" style="text-anchor:middle">Quote Response</text><line x1="270" x2="80" y1="205" y2="205" stroke="#000" stroke-width="2" marker-end="url(#arrowhead)" class="messageLine0" style="fill:none"/></g><g><text x="177.5" y="233" class="messageText" style="text-anchor:middle">Prepare Payment</text><line x1="80" x2="275" y1="240" y2="240" stroke="#000" stroke-width="2" marker-end="url(#arrowhead)" class="messageLine0" style="fill:none"/></g><g><rect width="10" height="33" x="270" y="242" fill="#f4f4f4" stroke="#666" rx="0" ry="0"/></g><g><text x="377.5" y="268" class="messageText" style="text-anchor:middle">Prepare Payment</text><line x1="280" x2="475" y1="275" y2="275" stroke="#000" stroke-width="2" marker-end="url(#arrowhead)" class="messageLine0" style="fill:none"/></g><g><rect width="10" height="33" x="470" y="277" fill="#f4f4f4" stroke="#666" rx="0" ry="0"/></g><g><text x="577.5" y="303" class="messageText" style="text-anchor:middle">Webhook Request</text><line x1="480" x2="675" y1="310" y2="310" stroke="#000" stroke-width="2" marker-end="url(#arrowhead)" class="messageLine0" style="fill:none"/></g><g><rect width="10" height="35" x="670" y="310" fill="#f4f4f4" stroke="#666" rx="0" ry="0"/></g><g><text x="572.5" y="338" class="messageText" style="text-anchor:middle">Webhook Response</text><line x1="670" x2="475" y1="345" y2="345" stroke="#000" stroke-width="2" marker-end="url(#arrowhead)" class="messageLine1" style="stroke-dasharray:3,3;fill:none"/></g><g><rect width="10" height="33" x="470" y="347" fill="#f4f4f4" stroke="#666" rx="0" ry="0"/></g><g><text x="372.5" y="373" class="messageText" style="text-anchor:middle">Fulfill Payment</text><line x1="470" x2="275" y1="380" y2="380" stroke="#000" stroke-width="2" marker-end="url(#arrowhead)" class="messageLine1" style="stroke-dasharray:3,3;fill:none"/></g><g><rect width="10" height="33" x="270" y="382" fill="#f4f4f4" stroke="#666" rx="0" ry="0"/></g><g><text x="175" y="408" class="messageText" style="text-anchor:middle">Payment Fulfilled</text><line x1="270" x2="80" y1="415" y2="415" stroke="#000" stroke-width="2" marker-end="url(#arrowhead)" class="messageLine1" style="stroke-dasharray:3,3;fill:none"/></g><g><text x="377.5" y="443" class="messageText" style="text-anchor:middle">Retry Original Request</text><line x1="80" x2="675" y1="450" y2="450" stroke="#000" stroke-width="2" marker-end="url(#arrowhead)" class="messageLine0" style="fill:none"/></g><g><rect width="10" height="33" x="670" y="452" fill="#f4f4f4" stroke="#666" rx="0" ry="0"/></g><g><text x="375" y="478" class="messageText" style="text-anchor:middle">200 OK</text><line x1="670" x2="80" y1="485" y2="485" stroke="#000" stroke-width="2" marker-end="url(#arrowhead)" class="messageLine1" style="stroke-dasharray:3,3;fill:none"/></g><g><rect width="150" height="65" x="0" y="505" fill="#eaeaea" stroke="#666" class="actor" rx="3" ry="3"/><text x="75" y="542.5" class="actor" style="text-anchor:middle">Payer</text></g><g><rect width="150" height="65" x="200" y="505" fill="#eaeaea" stroke="#666" class="actor" rx="3" ry="3"/><text x="275" y="542.5" class="actor" style="text-anchor:middle">Interledger</text></g><g><rect width="150" height="65" x="400" y="505" fill="#eaeaea" stroke="#666" class="actor" rx="3" ry="3"/><text x="475" y="542.5" class="actor" style="text-anchor:middle">PayeeWallet</text></g><g><rect width="150" height="65" x="600" y="505" fill="#eaeaea" stroke="#666" class="actor" rx="3" ry="3"/><text x="675" y="542.5" class="actor" style="text-anchor:middle">Payee</text></g></svg>